<?xml version="1.0" encoding="UTF-8" standalone="no"?>
<!-- Created with Inkscape (http://www.inkscape.org/) -->

<svg
   xmlns:dc="http://purl.org/dc/elements/1.1/"
   xmlns:cc="http://creativecommons.org/ns#"
   xmlns:rdf="http://www.w3.org/1999/02/22-rdf-syntax-ns#"
   xmlns:svg="http://www.w3.org/2000/svg"
   xmlns="http://www.w3.org/2000/svg"
   xmlns:sodipodi="http://sodipodi.sourceforge.net/DTD/sodipodi-0.dtd"
   xmlns:inkscape="http://www.inkscape.org/namespaces/inkscape"
   width="18.761045cm"
   height="19.049397cm"
   viewBox="0 0 187.61045 190.49396"
   version="1.1"
   id="svg8"
   inkscape:version="0.92.3 (2405546, 2018-03-11)"
   sodipodi:docname="needyou.svg">
  <sodipodi:namedview
     id="base"
     pagecolor="#ffffff"
     bordercolor="#666666"
     borderopacity="1.0"
     inkscape:pageopacity="0.0"
     inkscape:pageshadow="2"
     inkscape:zoom="0.35"
     inkscape:cx="1211.5774"
     inkscape:cy="263.92668"
     inkscape:document-units="mm"
     inkscape:current-layer="layer1"
     showgrid="false"
     inkscape:window-width="2560"
     inkscape:window-height="1012"
     inkscape:window-x="3840"
     inkscape:window-y="32"
     inkscape:window-maximized="1"
     units="cm"
     width="40cm"
     inkscape:snap-others="false"
     fit-margin-top="0"
     fit-margin-left="0"
     fit-margin-right="0"
     fit-margin-bottom="0" />
  <defs
     id="defs2" />
  <metadata
     id="metadata5">
    <rdf:RDF>
      <cc:Work
         rdf:about="">
        <dc:format>image/svg+xml</dc:format>
        <dc:type
           rdf:resource="http://purl.org/dc/dcmitype/StillImage" />
        <dc:title></dc:title>
      </cc:Work>
    </rdf:RDF>
  </metadata>
  <g
     inkscape:label="Layer 1"
     inkscape:groupmode="layer"
     id="layer1"
     transform="translate(-95.942967,-39.342989)">
    <path
       style="fill:#d40000;stroke-width:0.26458332"
       d="m 102.13937,229.51445 c -2.644073,-0.0887 -4.860233,-0.22072 -4.924793,-0.29348 -0.0646,-0.0728 -0.37709,-1.70816 -0.6945,-3.63423 l -0.57711,-3.50194 0.5204,-1.68486 c 1.0006,-3.23957 1.13958,-4.61483 0.67668,-6.6957 -0.39468,-1.77419 -0.38681,-2.21095 0.12766,-7.08781 l 0.54826,-5.19712 1.75639,-3.17683 c 1.737573,-3.14279 1.754983,-3.19442 1.624263,-4.81844 -0.0975,-1.21124 -0.46639,-2.36993 -1.407123,-4.41974 -1.27757,-2.78374 -1.70154,-4.74944 -1.33736,-6.20044 0.21322,-0.84955 1.556283,-2.1932 3.885973,-3.88767 2.038,-1.48232 2.19489,-1.90597 1.33858,-3.61462 -0.27058,-0.5399 -0.56738,-1.47349 -0.65955,-2.07463 -0.0922,-0.60114 -0.58013,-2.16121 -1.08436,-3.46682 -0.56036,-1.45095 -1.03579,-3.30181 -1.22289,-4.76078 -0.36711,-2.86254 -0.17315,-3.4399 1.60668,-4.78264 1.60996,-1.21459 1.82099,-1.72285 1.11297,-2.68051 l -0.56242,-0.76071 0.5434,-0.3608 c 0.5335,-0.35423 0.5347,-0.37905 0.0658,-1.36235 -0.38483,-0.807 -0.41504,-1.0887 -0.15553,-1.4503 0.63171,-0.88023 0.65618,-1.18553 0.20876,-2.60491 -0.34393,-1.09106 -0.39003,-1.64202 -0.19131,-2.28648 0.14399,-0.46698 0.33927,-1.98265 0.43396,-3.36816 0.0947,-1.38551 0.37817,-3.12762 0.62995,-3.87135 0.5611,-1.65744 1.95907,-4.02358 3.23133,-5.4692 0.94158,-1.06988 0.96185,-1.07773 1.9882,-0.77023 0.57031,0.17087 1.44529,0.61195 1.9444,0.98018 0.4991,0.36823 1.10018,0.6695 1.33572,0.6695 0.54684,0 1.85019,-1.34891 1.85019,-1.91487 0,-0.23689 0.26789,-0.51345 0.59531,-0.61457 0.32742,-0.10112 1.37114,-0.64195 2.31937,-1.20185 2.63615,-1.55654 4.73727,-2.32339 9.7495,-3.55827 2.52692,-0.62256 4.69935,-1.23689 4.82763,-1.36516 0.13458,-0.13459 0.003,-0.67571 -0.31052,-1.27936 -0.45034,-0.86644 -0.52969,-1.43566 -0.46199,-3.31402 0.0769,-2.13393 0.1638,-2.43132 1.4708,-5.03438 1.49222,-2.97195 1.61029,-3.54099 0.98539,-4.7494 l -0.40367,-0.78061 h 1.35176 c 1.52369,0 1.76138,-0.59956 0.2951,-0.74437 -0.73604,-0.0727 -0.83952,-0.17982 -0.83952,-0.8692 0,-0.69164 -0.0608,-0.75378 -0.50477,-0.51615 -0.46636,0.24959 -0.48319,0.213 -0.2213,-0.48084 0.3815,-1.01071 0.10306,-1.62277 -0.73823,-1.62277 -0.96884,0 -1.64108,0.42082 -2.10483,1.31762 -0.58069,1.12291 -0.49741,1.56176 0.39246,2.06812 0.43564,0.24789 0.79283,0.54001 0.79375,0.64915 7.9e-4,0.10914 -0.65317,0.19844 -1.45354,0.19844 -1.43262,0 -1.4552,-0.012 -1.4552,-0.77485 0,-0.93765 -0.58775,-1.57843 -1.641,-1.78908 -0.59396,-0.11879 -0.91806,-0.43374 -1.33993,-1.30207 l -0.55647,-1.14537 0.63464,-1.35498 c 0.51011,-1.08911 0.8793,-1.47896 1.88154,-1.98683 1.18461,-0.60029 1.66393,-0.79703 4.4608,-1.83097 1.51648,-0.56061 1.87315,-0.89319 2.77523,-2.58781 l 0.73633,-1.383251 -1.316,1.270721 c -1.31478,1.26952 -1.31863,1.27108 -4.12416,1.66207 -2.62539,0.36589 -2.84344,0.36116 -3.3502,-0.0727 -0.33742,-0.28891 -0.54203,-0.7848 -0.54203,-1.31363 0,-0.685351 0.22905,-1.037221 1.18523,-1.820741 1.40836,-1.15404 1.33003,-1.53004 -0.59451,-2.85382 -1.79123,-1.232082 -2.50403,-1.960419 -3.86115,-3.945283 -1.82351,-2.666982 -2.74568,-4.442997 -2.94109,-5.664235 l -0.17537,-1.095994 1.44842,-0.708644 c 0.90534,-0.442942 2.62352,-0.908158 4.5825,-1.240764 3.84304,-0.652489 4.49384,-0.826542 4.32472,-1.156639 -0.23669,-0.46197 -5.0142,-0.226647 -7.26013,0.357606 -2.54382,0.661749 -3.32337,1.202277 -3.71042,2.57275 -0.23347,0.826683 -0.33431,0.943597 -0.48309,0.560104 -0.70138,-1.807847 0.67722,-2.877224 5.30842,-4.117729 2.73496,-0.732581 5.23082,-0.750644 8.8305,-0.06391 5.53622,1.05618 7.13533,0.995685 5.11953,-0.193667 -1.03698,-0.611833 -1.1547,-1.068438 -0.44179,-1.713608 0.64471,-0.583459 1.40194,-0.551908 2.97282,0.123864 1.46683,0.631013 1.60657,1.015358 0.64436,1.772233 -0.3638,0.286168 -0.66145,0.577125 -0.66145,0.646575 0,0.06945 0.59531,0.205243 1.32291,0.301763 2.11852,0.281032 1.54557,0.686432 -0.97014,0.686432 -1.26118,0 -2.23648,0.05657 -2.16733,0.125722 0.23523,0.235228 7.89123,2.491666 9.4203,2.776426 3.1855,0.593239 14.34561,0.236697 21.23384,-0.678375 6.29186,-0.835848 16.15475,-3.052726 24.57584,-5.523902 6.56048,-1.925178 8.1517,-2.486393 11.2535,-3.969033 2.20648,-1.054683 2.96243,-1.592628 4.74975,-3.379941 l 2.12562,-2.125623 1.16537,0.618225 c 1.78947,0.949315 1.79437,0.844235 -0.19038,4.086709 -0.7126,1.164167 -1.24533,2.168462 -1.18385,2.231766 0.1947,0.200488 2.14475,-1.852239 2.64889,-2.788378 0.26616,-0.494228 0.64835,-0.898596 0.84932,-0.898596 0.62136,0 0.13381,1.269423 -1.55531,4.049575 -0.86694,1.4269 -1.57625,2.692969 -1.57625,2.813484 0,0.474639 2.14832,2.132774 2.76327,2.132774 0.8827,0 1.01991,-0.336314 0.64617,-1.583764 -0.17557,-0.586015 -0.24683,-1.137875 -0.15835,-1.226354 0.30464,-0.304647 2.53779,0.990822 3.45161,2.002311 0.56249,0.62261 1.08892,1.611368 1.36524,2.564228 0.24735,0.85298 0.63046,1.85788 0.85136,2.233115 0.35935,0.610449 0.35904,0.763585 -0.003,1.455208 -0.5234,0.999948 -2.26626,3.021923 -2.60476,3.021923 -0.14399,0 -0.18622,-0.238125 -0.0938,-0.529167 0.20486,-0.645477 -0.1817,-0.682357 -1.06765,-0.101862 -0.72793,0.476959 -0.7632,0.428416 -0.39411,-0.542372 0.14192,-0.373276 0.17168,-0.678608 0.0661,-0.678516 -0.10554,9e-5 -0.87429,0.535872 -1.70832,1.190625 -1.69555,1.331079 -1.71696,1.338662 -2.2992,0.814197 -0.22974,-0.206944 -0.74513,-0.457975 -1.14531,-0.55785 -0.56743,-0.141613 -0.72761,-0.08791 -0.72761,0.24397 0,0.234058 -0.17418,0.425558 -0.38708,0.425558 -0.52064,0 -2.83318,-0.919398 -4.73712,-1.883346 -0.85379,-0.432261 -1.66111,-0.749673 -1.79405,-0.705358 -0.13295,0.04431 0.41513,0.85326 1.21794,1.797658 0.80281,0.944399 1.4613,1.806385 1.46332,1.915526 0.002,0.10914 -0.22656,0.198437 -0.50795,0.198437 -0.31034,0 -1.00228,-0.624549 -1.75882,-1.5875 -1.16102,-1.477796 -1.9629,-2.001412 -1.9629,-1.281745 0,0.168164 0.30371,0.703945 0.67492,1.190625 0.5028,0.659199 0.57426,0.88487 0.2802,0.88487 -0.2171,0 -0.46831,-0.119062 -0.55825,-0.264583 -0.0899,-0.145521 -0.4092,-0.264584 -0.70947,-0.264584 -0.41839,0 -0.47915,0.08049 -0.26004,0.344498 0.15725,0.189474 0.21753,0.605981 0.13395,0.925574 -0.088,0.336658 0.0383,0.871397 0.30029,1.271286 0.31089,0.47448 0.36689,0.77557 0.17915,0.963305 -0.18773,0.18773 -0.0676,0.81894 0.38424,2.01946 0.86771,2.30528 1.6825,3.645591 2.97986,4.901771 l 1.06705,1.03318 0.30292,-0.66484 c 0.16661,-0.36566 0.56018,-1.77343 0.87461,-3.128371 0.31442,-1.35494 0.70475,-2.50788 0.8674,-2.5621 0.16265,-0.0542 0.65532,0.20401 1.09483,0.57383 1.03341,0.86957 1.22074,0.84744 1.02698,-0.12134 -0.20224,-1.01124 0.12947,-1.00847 0.98496,0.008 1.58219,1.88032 1.60056,5.591181 0.0338,6.823611 -0.73685,0.5796 -2.92374,0.94187 -4.17626,0.69182 -0.6335,-0.12648 -1.23905,-0.64205 -2.37001,-2.01786 l -1.51909,-1.84797 -0.26684,0.70186 c -0.14677,0.38602 -0.26685,0.8197 -0.26685,0.96373 0,0.14403 -0.25345,0.81823 -0.56322,1.49822 -0.83946,1.84272 -1.21611,4.36409 -0.77504,5.18823 0.38821,0.7254 0.27926,2.07666 -0.34556,4.28566 -0.20949,0.74061 -0.51857,2.70514 -0.68686,4.36562 -0.40795,4.02514 -0.83852,5.64007 -2.23601,8.38647 -1.20377,2.36571 -1.29378,2.7198 -1.24343,4.89175 0.0253,1.09105 0.11949,1.29761 0.69075,1.5148 0.37278,0.14173 0.66145,0.46268 0.66145,0.7354 0,0.62987 -1.29492,2.65443 -2.23731,3.49794 -1.47423,1.31954 -1.88156,1.73581 -2.57579,2.63231 l -0.70665,0.91251 -0.1712,-0.6821 c -0.11996,-0.47799 0.048,-1.10736 0.56137,-2.10315 0.57706,-1.11938 0.7417,-1.8211 0.77562,-3.30567 0.0372,-1.62809 0.20713,-2.24037 1.24835,-4.49791 1.38405,-3.00084 1.71656,-3.95779 1.28188,-3.68914 -0.40698,0.25153 -0.37398,0.0366 0.27757,-1.8074 0.31378,-0.88806 0.74991,-1.76104 0.96917,-1.93995 0.45889,-0.37442 0.51539,-3.61918 0.0865,-4.96638 l -0.2527,-0.79375 -0.34787,0.8599 c -0.41466,1.02504 -0.76101,1.11535 -0.76101,0.19845 0,-1.18609 -0.46361,-0.70063 -1.32654,1.38906 -0.46572,1.12779 -1.12613,2.42226 -1.46758,2.87661 -0.34145,0.45434 -0.75956,1.37708 -0.92913,2.05052 -0.25959,1.03091 -0.4088,1.22443 -0.94404,1.22443 -0.42409,0 -0.7377,-0.22382 -0.94206,-0.67235 -0.25529,-0.5603 -0.21026,-0.87012 0.27025,-1.85916 0.70839,-1.45806 0.71076,-1.52487 0.0394,-1.10875 -0.44424,0.27533 -0.58059,0.26427 -0.78771,-0.0639 -0.13776,-0.21828 -0.18382,-0.61094 -0.10236,-0.87259 0.0815,-0.26164 0.0121,-0.63957 -0.15408,-0.83984 -0.18473,-0.22258 -0.2332,-0.73189 -0.12471,-1.31022 0.15804,-0.84237 0.11625,-0.9461 -0.38112,-0.9461 -0.70394,0 -0.70624,-0.27092 -0.009,-1.01968 0.32923,-0.35338 0.73277,-0.53226 1.0055,-0.4457 0.25901,0.0822 0.84297,-0.14124 1.35354,-0.51793 0.4939,-0.36438 0.94486,-0.66251 1.00214,-0.66251 0.0573,0 0.0191,0.50331 -0.0848,1.11845 -0.17118,1.01323 -0.14847,1.08486 0.24133,0.76136 0.23666,-0.19641 0.43357,-0.49136 0.43757,-0.65544 0.004,-0.16409 0.41126,-0.59599 0.90502,-0.95979 0.49375,-0.3638 1.08001,-0.96771 1.3028,-1.34201 1.09776,-1.84436 1.66182,-5.1464 1.23964,-7.25695 -0.26165,-1.30803 -0.2543,-1.33216 0.65386,-2.1447 l 0.91849,-0.82179 v -2.55165 c 0,-2.091741 0.0715,-2.551651 0.39687,-2.551651 0.21828,0 0.39688,-0.12497 0.39688,-0.27772 0,-0.42579 -0.71158,-1.70595 -1.15093,-2.07058 -0.4267,-0.35413 -0.48453,-0.25057 -0.83701,1.49884 -0.13691,0.67951 -0.27871,0.83752 -0.64676,0.72071 -0.36492,-0.11583 -0.50873,0.0371 -0.63669,0.67687 -0.0909,0.45457 -0.0917,1.11981 -0.002,1.478311 0.12962,0.51646 0.0469,0.68233 -0.39832,0.79876 -0.30906,0.0808 -0.56192,0.29392 -0.56192,0.47355 0,0.17964 -0.56555,0.85928 -1.25677,1.51032 -0.69122,0.65103 -1.71395,1.74603 -2.27272,2.43333 -0.74312,0.91404 -1.10323,1.17719 -1.34095,0.9799 -0.39194,-0.32518 -1.47968,0.34077 -1.47968,0.90584 0,0.37659 -1.06783,1.26931 -1.27295,1.0642 -0.0628,-0.0628 0.21156,-0.67022 0.60978,-1.34972 0.56955,-0.97188 0.69439,-1.45646 0.58509,-2.27129 -0.17004,-1.26779 -0.58697,-1.80882 -1.39391,-1.80882 -0.9383,0 -0.99577,-0.42913 -0.10678,-0.79736 0.87731,-0.3634 2.10794,-1.68066 2.10794,-2.256341 0,-0.36089 -0.77563,-0.91505 -1.28075,-0.91505 -0.14147,0 -0.2087,0.20836 -0.14941,0.46302 0.0789,0.33902 -0.241,0.63134 -1.19455,1.091501 -1.52319,0.73505 -3.22892,0.63187 -4.36813,-0.26422 -0.96063,-0.755641 -0.84366,-0.186261 0.25834,1.25743 0.51613,0.67617 0.90309,1.40599 0.8599,1.62182 -0.0432,0.21584 -0.4863,0.52684 -0.98469,0.69113 -1.2597,0.41523 -1.29367,0.86846 -0.10628,1.4178 0.55685,0.25762 1.2408,0.75072 1.51989,1.09577 0.2791,0.34506 0.90417,0.79314 1.38906,0.99574 0.92505,0.38651 1.18256,0.89043 0.45502,0.89043 -0.23463,0 -1.61136,-0.55728 -3.0594,-1.2384 -2.3982,-1.12804 -2.61906,-1.29314 -2.4786,-1.85279 0.12325,-0.49107 -0.0181,-0.7192 -0.70414,-1.1364 -0.47209,-0.28709 -0.93526,-0.4356 -1.02928,-0.33001 -0.094,0.10559 -0.0856,0.90635 0.0186,1.77947 0.10425,0.87313 0.0971,1.82563 -0.016,2.11667 -0.11303,0.29104 -0.27555,0.85659 -0.36115,1.25677 -0.1173,0.54835 -0.31205,0.72761 -0.79049,0.72761 -0.5497,0 -0.71316,-0.23954 -1.21878,-1.78594 -0.32117,-0.98227 -1.16431,-3.04587 -1.87366,-4.58578 -1.32,-2.86558 -1.5747,-4.174891 -0.91815,-4.719781 0.20871,-0.17322 0.66723,-0.23417 1.04615,-0.13906 0.78399,0.19677 3.45172,-0.62948 5.12895,-1.58853 0.81064,-0.46353 1.36572,-0.60254 1.99697,-0.5001 0.50899,0.0826 1.28672,-0.0305 1.86148,-0.27062 0.86408,-0.36103 0.9662,-0.49628 0.81862,-1.08426 -0.19783,-0.788238 -0.19305,-0.789502 1.03858,-0.274893 1.08744,0.454363 1.23144,0.476503 1.23144,0.189338 0,-0.114146 -0.35634,-0.418025 -0.79185,-0.67529 -1.18454,-0.699725 -1.42464,-1.320271 -0.80062,-2.069166 0.4331,-0.519766 0.51795,-0.545367 0.52533,-0.15852 0.0111,0.58433 1.89403,1.961597 3.2282,2.361324 1.08103,0.323885 1.58051,0.151596 1.06244,-0.366472 -0.40504,-0.405045 -0.40316,-1.001006 0.003,-1.001006 0.17394,0 0.64894,0.318741 1.05557,0.708316 0.40663,0.389573 0.79797,0.649664 0.86966,0.57798 0.0717,-0.07169 -0.0973,-0.926208 -0.37544,-1.898941 -0.42148,-1.473779 -0.44275,-1.768605 -0.12759,-1.768605 0.58616,0 0.44711,-0.402867 -0.27186,-0.787648 -0.8846,-0.473422 -5.45564,-0.152681 -7.41083,0.520001 -0.80401,0.276619 -2.43754,0.645613 -3.63007,0.819984 -1.54658,0.226139 -2.51,0.533775 -3.36023,1.072975 -0.6556,0.415766 -1.44253,0.755938 -1.74874,0.755938 -0.83572,0 -1.19174,0.514464 -1.19174,1.722139 0,0.597926 -0.16232,1.309126 -0.36072,1.580456 -0.38932,0.53242 -0.39801,0.52426 -1.37924,-1.29511 -0.5083,-0.942471 -3.95178,-1.6372 -9.14701,-1.845425 l -4.64935,-0.186346 -2.87357,0.951323 c -1.58046,0.523227 -3.28563,1.265628 -3.78928,1.649768 -1.00692,0.76802 -0.68203,1.18024 0.38116,0.48361 0.36004,-0.23591 0.9813,-0.54722 1.38058,-0.6918 0.62114,-0.22492 0.56598,-0.12717 -0.38203,0.67689 -1.17552,0.99702 -2.3709,2.69191 -2.09392,2.96889 0.0911,0.0911 0.51663,-0.0937 0.94551,-0.41079 0.92795,-0.68607 1.10317,-0.71722 0.88856,-0.15794 -0.12427,0.32384 0.13211,0.26812 1.13278,-0.2462 0.87792,-0.45122 2.09671,-0.75949 3.79408,-0.95962 2.35845,-0.2781 2.53901,-0.26424 3.175,0.2436 2.47928,1.97976 4.59177,2.66869 6.05459,1.97454 1.05997,-0.50299 1.66559,-0.28932 1.89142,0.66732 l 0.13997,0.592931 0.73123,-0.575191 c 0.40218,-0.31635 0.9105,-0.92186 1.12961,-1.34557 0.21912,-0.42372 0.53105,-0.77039 0.69319,-0.77039 0.46552,0 0.0847,2.672591 -0.54942,3.855701 -0.45565,0.85015 -0.55272,1.49892 -0.55272,3.69423 0,1.57307 0.11832,2.78131 0.28909,2.95208 0.20907,0.20907 0.20907,0.43862 0,0.82927 -0.159,0.2971 -0.28909,1.02426 -0.28909,1.61591 0,0.59165 -0.10301,1.07573 -0.2289,1.07573 -0.46517,0 -1.56856,-1.06925 -1.71806,-1.66491 -0.0849,-0.33821 -0.34453,-1.07014 -0.577,-1.6265 -0.31454,-0.7528 -0.49924,-0.93497 -0.72206,-0.71216 -0.45842,0.45842 -0.62654,0.37384 -1.2047,-0.60606 -0.96991,-1.64388 -1.39084,-1.65614 -3.13618,-0.0914 -1.48235,1.32901 -1.36981,1.0211 0.28843,-0.78913 0.43323,-0.47295 0.9359,-0.8599 1.11705,-0.8599 0.18115,0 0.40935,-0.12944 0.50712,-0.28764 0.37547,-0.60751 -0.3294,-0.7418 -1.83287,-0.34918 -0.85003,0.22197 -1.61257,0.33653 -1.69452,0.25457 -0.082,-0.082 0.1219,-0.43738 0.45302,-0.78983 0.67317,-0.71656 0.55371,-1.11896 -0.44489,-1.49863 -0.59023,-0.2244 -0.76671,-0.14756 -1.3982,0.60886 -0.63385,0.75926 -0.88106,0.86603 -2.01078,0.86846 -0.70845,0.002 -1.61551,-0.0888 -2.01569,-0.20071 -0.8269,-0.23125 -0.94088,0.10737 -0.42055,1.24936 0.26765,0.58743 0.47985,0.67729 1.65365,0.70028 0.74062,0.0145 1.64059,0.10831 1.99993,0.20845 l 0.65333,0.18208 -0.78563,0.3116 c -0.43209,0.17139 -1.14281,0.39195 -1.57938,0.49014 -1.45622,0.32755 -2.24895,0.87052 -2.24895,1.5404 0,0.71818 1.04629,1.20971 2.57507,1.20971 1.22723,0 1.0249,0.48954 -0.54677,1.32291 -0.78136,0.41432 -1.31918,0.56233 -1.43944,0.39614 -0.10559,-0.14594 -0.67664,-0.59381 -1.26899,-0.99527 -1.26591,-0.85798 -2.13752,-1.96007 -2.38236,-3.01234 -0.37624,-1.61705 -1.43543,-2.58789 -1.43543,-1.31571 0,0.34598 -0.17859,0.77728 -0.39688,0.95843 -0.21828,0.18116 -0.39687,0.54687 -0.39687,0.81269 0,0.26581 -0.41672,0.80115 -0.92604,1.18963 -0.51989,0.39653 -0.92604,0.94086 -0.92604,1.24107 0,0.2941 -0.17638,0.66692 -0.39194,0.82849 -0.24407,0.18293 -0.3085,0.42588 -0.17077,0.64399 0.177,0.28028 0.40062,0.24084 1.11955,-0.19745 1.26903,-0.77366 1.74307,-0.73645 1.19886,0.0941 -0.39991,0.61034 -0.39259,0.64812 0.14099,0.7276 0.58471,0.0871 0.77018,0.33335 1.26407,1.67836 0.29677,0.8082 1.82147,1.71276 2.88699,1.71276 0.26832,0 0.83305,0.11324 1.25495,0.25165 0.4219,0.1384 1.27522,0.38169 1.89628,0.54063 l 1.1292,0.28899 -0.65287,0.85595 c -0.85116,1.11594 -1.72466,3.05675 -1.732,3.84833 -0.005,0.49703 0.10332,0.59763 0.52335,0.48779 0.4736,-0.12385 0.52874,-0.009 0.52512,1.09362 -0.002,0.6776 -0.11402,1.40586 -0.24843,1.61836 -0.20909,0.33056 -0.32336,0.31487 -0.79132,-0.10863 -0.66602,-0.60273 -0.78464,-0.50102 -1.11129,0.95278 -0.24146,1.0747 -0.18001,1.2901 1.08183,3.79165 0.73581,1.45872 1.33784,2.91514 1.33784,3.23649 0,0.32135 0.21782,0.79728 0.48405,1.0576 0.26623,0.26034 0.9269,1.27701 1.46816,2.25927 0.75238,1.36541 0.88761,1.78594 0.57428,1.78594 -0.46926,0 -0.52077,0.46749 -0.15694,1.42443 0.22359,0.58808 0.42805,0.67436 1.76504,0.74483 0.99782,0.0526 1.55332,0.20437 1.63319,0.44625 0.095,0.28768 -0.0847,0.32796 -0.83501,0.1872 -0.79586,-0.14931 -0.9298,-0.11098 -0.79943,0.22876 0.0861,0.22446 0.3262,0.40811 0.53348,0.40811 0.20728,0 0.44657,0.18164 0.53176,0.40363 0.11575,0.30163 0.24321,0.33033 0.50439,0.11357 0.26888,-0.22315 0.4394,-0.11791 0.73923,0.45627 0.48922,0.93686 1.95964,2.35455 2.19647,2.11772 0.0976,-0.0976 -0.002,-0.38662 -0.22157,-0.64217 -0.21951,-0.25555 -0.49422,-0.64324 -0.61046,-0.86152 -0.17175,-0.32251 -0.14459,-0.3349 0.14496,-0.0661 0.56201,0.52165 0.98234,0.3923 0.8598,-0.26459 -0.14825,-0.79471 0.50419,-1.65832 1.08459,-1.43561 0.33904,0.13011 0.43316,0.44895 0.38831,1.31541 -0.0605,1.16963 0.13676,1.77385 0.57923,1.77385 0.13694,0 0.24897,-0.2311 0.24897,-0.51355 0,-0.75132 0.44789,-0.90396 0.62274,-0.21223 0.20911,0.82726 1.68927,3.10703 2.01727,3.10703 0.14872,0 0.27041,-0.30148 0.27041,-0.66996 0,-0.96683 0.72979,-2.57046 1.11183,-2.44311 0.37022,0.1234 1.04088,2.36595 1.52446,5.09744 0.18034,1.01865 0.38384,2.10247 0.45222,2.40849 0.11755,0.52608 0.0188,0.55645 -1.81282,0.55724 l -1.93715,7.9e-4 -2.41816,-2.45609 c -1.87464,-1.90405 -2.67747,-2.53241 -3.57187,-2.79566 -0.63455,-0.18676 -1.67145,-0.66438 -2.30423,-1.06137 -2.08194,-1.30615 -4.03138,-1.45273 -5.95012,-0.4474 -0.94647,0.49591 -5.09933,5.07917 -5.28829,5.83638 -0.0828,0.33188 -0.45151,1.43685 -0.81931,2.4555 -0.75189,2.08238 -0.84892,3.96517 -0.28583,5.54612 0.47209,1.32543 0.26846,1.54319 -0.55185,0.59012 -0.35169,-0.4086 -0.76054,-0.66807 -0.90856,-0.57658 -0.89365,0.55234 -2.37574,4.88223 -2.37574,6.94069 0,0.62939 -0.16731,1.40805 -0.37181,1.73035 -0.20451,0.3223 -0.6285,1.53851 -0.94221,2.70267 -0.79955,2.96709 -1.76284,4.9873 -2.71304,5.68982 l -0.81076,0.59942 0.18252,-0.76337 c 0.10038,-0.41985 0.2431,-1.00149 0.31714,-1.29253 0.10507,-0.41296 -0.0203,-0.35485 -0.57106,0.26458 -3.36015,3.77939 -7.92495,8.73211 -9.15551,9.93356 -1.33712,1.30548 -1.53976,1.64756 -1.84158,3.10885 -0.18653,0.90308 -0.43439,1.64197 -0.55079,1.64197 -0.11641,0 -0.21165,0.12608 -0.21165,0.28019 0,0.15411 0.12384,0.20367 0.27519,0.11013 0.50087,-0.30956 -0.0444,1.31064 -0.56964,1.69247 -0.60155,0.43734 -0.65738,1.0922 -0.0931,1.0922 0.31957,0 0.34779,0.10911 0.13232,0.51171 -0.15062,0.28144 -0.44515,1.32602 -0.65451,2.32127 -0.20936,0.99526 -0.50869,2.14633 -0.66518,2.55794 -0.16164,0.42513 -0.29082,2.76522 -0.29908,5.41779 -0.0122,3.90909 0.075,5.01169 0.5352,6.7714 0.32334,1.23634 0.48523,2.44583 0.39309,2.93695 -0.15672,0.83541 0.24169,2.53499 1.04148,4.44282 0.46451,1.10804 2.70281,3.74742 3.17798,3.74742 0.16271,0 0.44961,0.46939 0.63756,1.04308 0.48328,1.47516 0.82261,1.7993 1.74231,1.66431 0.59233,-0.0869 0.92574,0.0413 1.33797,0.51472 l 0.54905,0.6305 2.24896,-1.96568 c 1.23692,-1.08112 2.35263,-1.90228 2.47934,-1.8248 0.12671,0.0775 0.1772,1.05965 0.11219,2.1826 -0.0876,1.51344 -0.27372,2.29336 -0.71928,3.01429 -0.55956,0.9054 -0.57237,1.01641 -0.18539,1.60703 0.22864,0.34894 0.66899,0.71483 0.97855,0.81308 0.30957,0.0982 0.46157,0.2749 0.33778,0.39255 -0.2812,0.26725 -34.48869,0.51044 -41.01581,0.29159 z m 53.75532,-124.11848 c -0.0899,-0.14552 -0.27555,-0.26458 -0.41249,-0.26458 -0.13693,0 -0.24896,0.11906 -0.24896,0.26458 0,0.14552 0.18562,0.26459 0.41249,0.26459 0.22687,0 0.3389,-0.11907 0.24896,-0.26459 z m -23.6802,-23.018749 c 0,-0.145521 -0.11907,-0.264583 -0.26459,-0.264583 -0.14552,0 -0.26458,0.119062 -0.26458,0.264583 0,0.145521 0.11906,0.264584 0.26458,0.264584 0.14552,0 0.26459,-0.119063 0.26459,-0.264584 z m 15.84582,147.058819 c -0.86032,-0.70143 -0.79261,-1.20925 0.1857,-1.39279 0.50253,-0.0943 1.05985,-0.40969 1.23848,-0.70093 0.17863,-0.29124 1.07829,-1.08457 1.99923,-1.76295 0.92095,-0.67838 1.80148,-1.47599 1.95673,-1.77247 0.27206,-0.51953 0.26336,-0.52228 -0.24007,-0.076 -0.72449,0.6422 -0.87756,0.58451 -0.87756,-0.33073 0,-0.43656 -0.0783,-0.79375 -0.174,-0.79375 -0.0957,0 -0.78031,0.45789 -1.52135,1.01752 -2.82319,2.13207 -3.33173,2.32365 -3.33173,1.2552 0,-0.77323 1.04657,-2.11271 5.26365,-6.73678 3.24509,-3.55826 4.11541,-4.9779 1.54282,-2.51659 -2.06531,1.97597 -2.30856,2.13249 -2.30856,1.48542 0,-0.66961 2.07539,-3.00015 3.61497,-4.05941 0.64079,-0.44088 1.96708,-1.07438 2.94732,-1.40778 2.02594,-0.68906 3.15941,-1.24111 5.60855,-2.73157 1.54725,-0.94162 1.74407,-1.15947 1.96183,-2.17149 0.18297,-0.85033 0.126,-1.58609 -0.23341,-3.01459 -0.97733,-3.88436 -2.29699,-7.5025 -3.38447,-9.27924 -1.41812,-2.31696 -2.04919,-2.60732 -1.10057,-0.50639 1.57807,3.495 4.12994,11.77016 3.74756,12.15254 -0.0893,0.0893 -0.56978,-0.14826 -1.06764,-0.52799 -0.82747,-0.63115 -0.98872,-1.00104 -1.87803,-4.30806 -1.15584,-4.29816 -1.44901,-4.97683 -2.14988,-4.97683 -0.65402,0 -1.3417,1.91554 -1.74547,4.862 -0.15203,1.10945 -0.34416,2.43389 -0.42695,2.94321 l -0.15053,0.92604 -0.30929,-1.19062 -0.3093,-1.19063 -0.57797,1.53128 c -0.31788,0.84221 -0.57797,1.68228 -0.57797,1.86683 0,0.18455 -0.2681,0.69894 -0.59578,1.14309 -0.48644,0.65933 -0.67892,0.75511 -1.04871,0.52185 -0.36249,-0.22865 -0.60715,-0.13794 -1.2253,0.45428 -0.89201,0.85461 -1.81704,2.45175 -1.56561,2.70317 0.0944,0.0944 0.53565,-0.0876 0.98058,-0.40444 1.36377,-0.97109 0.89787,-0.13648 -0.68176,1.22131 -2.03466,1.7489 -4.50436,4.20454 -5.82038,5.78723 -0.60138,0.72324 -1.15655,1.25546 -1.2337,1.18269 -0.0772,-0.0728 0.14159,-0.80009 0.48612,-1.61631 0.7654,-1.8133 1.98781,-7.07491 2.02181,-8.70244 0.0199,-0.95247 -0.16309,-1.46692 -0.9148,-2.57198 -1.14683,-1.68594 -2.79947,-5.86512 -3.79429,-9.59501 l -0.73995,-2.77428 -0.29405,1.18678 c -0.29263,1.18102 -0.29703,1.16813 -0.90617,-2.64967 -0.45916,-2.87779 -0.57541,-4.43149 -0.46521,-6.21771 0.21196,-3.4359 0.74774,-7.27604 1.01515,-7.27604 0.12648,0 0.23236,1.75617 0.23529,3.9026 0.006,4.48668 0.13318,5.45864 1.5065,11.52353 0.98931,4.36902 1.54709,5.55485 1.51426,3.21925 -0.015,-1.06462 0.0445,-1.18288 0.59531,-1.18288 0.55794,0 0.61194,-0.11674 0.61194,-1.32292 0,-0.99954 0.097,-1.32291 0.39688,-1.32291 0.41234,0 0.52507,-0.31278 0.22198,-0.61587 -0.0962,-0.0962 -0.20091,-0.50299 -0.2327,-0.90399 -0.0318,-0.40101 -0.14447,-1.15836 -0.25039,-1.683 -0.16792,-0.83175 -0.12118,-0.97258 0.36499,-1.09971 0.45709,-0.11954 0.55758,-0.34916 0.55758,-1.27423 0,-0.7001 0.17441,-1.32114 0.4595,-1.63616 0.43216,-0.47753 0.43271,-0.52736 0.009,-0.83702 -0.31871,-0.23305 -0.3679,-0.41167 -0.16833,-0.61124 0.19081,-0.19082 0.22171,-1.46657 0.0956,-3.94632 -0.43802,-8.61092 -0.16795,-11.9438 0.94425,-11.65295 0.34471,0.0901 0.51188,-0.001 0.51188,-0.27925 0,-0.36234 0.0607,-0.35817 0.4939,0.0339 0.47336,0.42838 0.50136,0.40027 0.6735,-0.67626 l 0.17962,-1.12323 1.66048,1.7442 c 1.0955,1.15072 1.94665,1.80705 2.5015,1.92891 0.96387,0.2117 1.00635,0.31517 0.40312,0.98173 -0.41451,0.45803 -0.39686,0.48485 0.33073,0.50246 0.42273,0.0102 1.00673,0.11617 1.29777,0.23544 0.49168,0.20149 0.47641,0.23765 -0.21566,0.51057 -0.40965,0.16155 -0.80729,0.29372 -0.88363,0.29372 -0.0763,0 -0.36229,0.26789 -0.63543,0.59531 -0.69256,0.83018 -0.63697,2.04595 0.14183,3.10154 0.83603,1.13319 1.70189,1.69535 3.69791,2.40092 0.87953,0.31091 2.0429,0.74982 2.58526,0.97536 0.73597,0.30607 1.0765,0.33507 1.34245,0.11435 0.3928,-0.32599 2.10253,-0.11494 4.766,0.58831 1.76894,0.46706 4.05383,0.19858 4.60435,-0.54103 0.23816,-0.31997 1.02652,-0.49196 3.03249,-0.66158 3.05162,-0.25804 3.58557,-0.52414 2.62556,-1.30846 -0.61517,-0.50259 -0.61926,-0.52986 -0.13271,-0.88563 0.2761,-0.20189 0.44266,-0.42587 0.37013,-0.49773 -0.0725,-0.0719 -1.5011,-0.32631 -3.17459,-0.56544 -10.1762,-1.4541 -11.25253,-1.6449 -10.38489,-1.84085 0.47294,-0.10681 0.85989,-0.30988 0.85989,-0.45126 0,-0.40921 -1.82336,-1.06489 -3.85945,-1.38785 -1.18255,-0.18757 -1.83761,-0.40879 -1.77362,-0.59895 0.0558,-0.16585 -0.35057,-0.58257 -0.90305,-0.92605 l -1.0045,-0.6245 0.79375,-0.0865 c 0.43656,-0.0476 0.90686,-0.1964 1.0451,-0.33072 0.13825,-0.13433 0.6932,-0.24423 1.23323,-0.24423 0.54003,0 1.65107,-0.25609 2.46897,-0.56908 l 1.48711,-0.56908 3.58166,1.7597 c 3.96411,1.94761 4.17208,1.98226 9.08395,1.51346 2.13581,-0.20384 2.26363,-0.25331 2.98798,-1.15623 0.70265,-0.87586 0.81406,-0.92329 1.55909,-0.66357 0.57323,0.19983 0.88545,0.19664 1.09325,-0.0112 0.21145,-0.21145 -0.10109,-0.46865 -1.14452,-0.94188 -1.91702,-0.86942 -11.41446,-3.59549 -12.52645,-3.59549 -1.08346,0 -2.8471,0.60315 -3.84837,1.31612 -0.63644,0.45318 -1.00226,0.50868 -2.42991,0.36866 -2.07684,-0.20371 -3.99029,-0.97832 -4.33287,-1.75406 -0.3412,-0.77263 -2.39995,-1.26067 -5.59391,-1.32609 -1.3339,-0.0273 -2.37397,-0.13269 -2.31126,-0.23414 0.0627,-0.10146 -0.12585,-0.2606 -0.419,-0.35365 -0.70393,-0.22341 -0.71117,-1.47776 -0.0122,-2.11033 0.5345,-0.48371 1.10206,-0.48241 4.53793,0.0104 1.57187,0.22548 1.83632,-0.17509 0.79986,-1.21156 -0.48986,-0.48987 -0.64752,-0.79082 -0.41429,-0.79082 0.20709,0 0.37652,-0.22539 0.37652,-0.50086 0,-0.27547 0.1786,-0.56939 0.39688,-0.65315 0.70964,-0.27232 0.4238,-1.12406 -1.05834,-3.15357 -1.56479,-2.14269 -2.01657,-3.45579 -0.79375,-2.307 l 0.66146,0.62141 v -1.71979 c 0,-1.788 0.0623,-1.9043 1.68127,-3.13669 0.4665,-0.35512 0.48603,-0.2972 0.39688,1.17696 -0.0603,0.99749 0.0135,1.58768 0.20688,1.65485 0.39175,0.13602 0.88997,-1.31355 0.88997,-2.58936 0,-1.22913 0.22523,-1.3983 1.04171,-0.78243 l 0.63003,0.47524 -0.58921,0.95338 -0.58922,0.95337 0.7182,0.71821 c 0.67129,0.67128 0.69499,0.77105 0.36285,1.52725 -0.46516,1.05903 -0.40044,3.06073 0.13225,4.09086 0.23301,0.45058 0.46641,0.81924 0.51868,0.81924 0.0523,0 0.0345,-0.75338 -0.0394,-1.67417 -0.17342,-2.16053 0.58888,-4.14667 1.59155,-4.14667 0.9076,0 0.98885,0.18721 0.58186,1.34073 -0.19954,0.56556 -0.39882,1.58438 -0.44284,2.26404 -0.069,1.06571 -0.007,1.24642 0.44913,1.3133 0.29104,0.0427 0.7586,0.11441 1.03902,0.15943 0.61885,0.0994 1.7391,-1.41376 1.7391,-2.34904 0,-0.34808 -0.24086,-1.105 -0.53524,-1.68204 -0.47583,-0.93269 -0.49468,-1.1298 -0.16978,-1.7754 0.30752,-0.61108 0.3091,-0.86075 0.01,-1.57473 -0.19552,-0.46668 -0.59537,-0.97688 -0.88855,-1.13379 -0.29319,-0.1569 -0.53306,-0.46387 -0.53306,-0.68216 0,-0.6732 0.92408,0.0128 2.38985,1.77408 1.16743,1.4028 1.28483,1.64735 0.91925,1.91467 -0.37991,0.27779 -0.38103,0.41442 -0.012,1.46029 0.53187,1.50748 0.51681,3.59721 -0.0383,5.31603 -0.52886,1.63752 -0.39773,1.94572 1.26505,2.97343 1.40134,0.86611 5.2259,1.61823 8.24233,1.62088 l 2.05052,0.002 v 0.73134 c 0,0.88989 0.16123,1.00003 1.22645,0.83777 0.68466,-0.1043 0.95042,-0.36521 1.52135,-1.49365 0.38048,-0.752 0.69178,-1.80395 0.69178,-2.33765 0,-1.21187 -0.74108,-1.78321 -3.175,-2.44779 -2.40638,-0.65706 -2.57972,-0.78629 -3.01337,-2.24654 -0.21194,-0.71368 -0.52165,-1.55229 -0.68826,-1.86359 -0.29786,-0.55656 -0.28958,-0.55911 0.4956,-0.15308 1.05747,0.54684 1.01752,0.55787 2.04587,-0.56482 l 0.89556,-0.9778 v 0.97775 c 0,1.18441 0.26058,1.23928 0.88283,0.1859 0.59127,-1.00093 1.06304,-1.24884 2.82019,-1.48193 l 1.4133,-0.18749 -0.89509,1.11382 c -0.7407,0.9217 -0.82825,1.15608 -0.50763,1.35887 0.21309,0.13478 0.53068,0.24688 0.70574,0.24911 0.28892,0.004 0.86725,1.53342 0.87085,2.30354 0.003,0.59665 0.57905,0.66946 1.61196,0.20369 0.76658,-0.34568 1.03535,-0.62411 1.03535,-1.07254 0,-0.33312 0.11452,-0.67643 0.25448,-0.76293 0.1629,-0.10069 0.1629,-0.39811 0,-0.82659 -0.37655,-0.99039 -0.29825,-1.10541 0.28004,-0.41139 0.50872,0.61053 0.84423,1.6218 1.16632,3.51537 0.14347,0.84346 0.0335,1.1251 -0.901,2.30732 -0.58543,0.74063 -1.06442,1.42678 -1.06442,1.52478 0,0.098 0.44648,0.57699 0.99219,1.06443 0.5457,0.48744 0.78382,0.81474 0.52916,0.72734 -0.35956,-0.12341 -0.46302,-0.0117 -0.46302,0.49999 0,0.43639 -0.1787,0.70564 -0.52916,0.79728 -0.29105,0.0761 -0.52917,0.32439 -0.52917,0.55173 0,0.27538 0.14568,0.35743 0.43648,0.24585 0.36704,-0.14085 0.40597,-0.046 0.24474,0.59643 l -0.19173,0.76392 0.56279,-0.50932 0.56279,-0.50932 -0.27445,0.72186 c -0.45208,1.18906 -1.45014,2.94242 -1.80364,3.16857 -0.1819,0.11637 -0.33073,0.35785 -0.33073,0.53663 0,0.3506 -0.51479,1.10915 -2.39274,3.52572 -1.66532,2.14294 -1.69097,2.1971 -1.21138,2.55669 0.37524,0.28135 0.33882,0.56314 -0.35882,2.77673 -0.42704,1.35498 -1.02985,2.87363 -1.33957,3.37477 l -0.56313,0.91116 0.71156,0.84564 c 0.60101,0.71425 0.68755,1.01207 0.55704,1.9169 -0.6621,4.59027 -1.37947,17.7829 -1.29554,23.82542 0.0463,3.33411 0.86227,6.78522 2.0002,8.45983 0.37215,0.54767 0.61103,1.16673 0.53085,1.37568 -0.14068,0.36663 0.10043,0.98127 1.38317,3.52595 0.71042,1.40933 1.97836,5.34602 1.97836,6.14241 v 0.55885 l -15.66191,-0.17718 c -11.3781,-0.12872 -15.71351,-0.26068 -15.85056,-0.48244 -0.1406,-0.22749 -0.38023,-0.23009 -0.9407,-0.0102 -1.31333,0.51525 -3.09242,0.64973 -3.55934,0.26905 z m 16.30105,-77.47341 c -0.0899,-0.14552 -0.28258,-0.26458 -0.4281,-0.26458 -0.14552,0 -0.191,0.11906 -0.10107,0.26458 0.0899,0.14553 0.28259,0.26459 0.42811,0.26459 0.14552,0 0.191,-0.11906 0.10106,-0.26459 z m 48.55104,77.30891 c 0,-0.26323 -0.17481,-0.70971 -0.38846,-0.99219 -0.48265,-0.63812 -0.52594,-3.8629 -0.11265,-8.39183 0.24447,-2.67908 0.21656,-3.97101 -0.16963,-7.85074 -0.60303,-6.05795 -0.41103,-15.30468 0.42878,-20.65123 0.8112,-5.16432 1.00969,-17.00691 0.37524,-22.3869 -0.35425,-3.00398 -0.38212,-3.90389 -0.13028,-4.20734 0.25262,-0.30439 0.22727,-0.7659 -0.11993,-2.18265 -0.24216,-0.98815 -0.53465,-1.94933 -0.64999,-2.13595 -0.30458,-0.49282 -3.91448,1.71414 -4.1158,2.51625 -0.10358,0.4127 -0.47619,0.69352 -1.2132,0.91433 -0.9485,0.28418 -1.17382,0.25681 -2.08044,-0.25274 -0.55921,-0.3143 -1.95462,-0.74893 -3.10092,-0.96585 -1.33018,-0.25172 -2.86137,-0.79393 -4.23247,-1.49875 -2.71421,-1.39525 -3.15171,-1.3028 -2.89765,0.61231 0.11741,0.88509 0.0793,1.42233 -0.10907,1.53876 -0.2073,0.12812 -0.20935,0.38958 -0.007,0.92124 0.15523,0.40829 0.23384,0.79074 0.17469,0.8499 -0.21021,0.21021 -1.452,-2.19752 -1.63416,-3.16849 -0.26049,-1.38854 -0.58053,-1.44416 -0.92607,-0.16095 -0.54891,2.03852 -0.78354,4.05964 -0.78508,6.76295 -0.001,2.52448 0.16782,3.43209 1.17629,6.30742 0.10207,0.29104 -0.1176,0.0565 -0.48816,-0.5213 -0.94823,-1.47843 -1.4834,-4.14121 -1.4834,-7.38084 0,-2.13227 0.10443,-2.95257 0.45328,-3.5604 0.6978,-1.21583 0.14677,-5.54973 -1.11672,-8.78315 -0.7356,-1.88248 -0.87957,-2.50786 -0.64298,-2.79293 0.2318,-0.27931 0.19756,-0.95106 -0.14291,-2.80372 -0.27838,-1.51478 -0.38043,-2.88532 -0.26978,-3.62316 l 0.17796,-1.18676 0.53197,0.8402 c 0.29259,0.4621 0.57799,0.84019 0.63423,0.84019 0.0562,0 0.039,-0.74414 -0.0383,-1.65365 l -0.14058,-1.65364 0.67887,1.25677 c 0.37338,0.69122 0.75489,1.25677 0.8478,1.25677 0.38718,0 3.10242,-2.29625 4.51643,-3.81952 0.83721,-0.9019 2.27581,-2.91751 3.19689,-4.47912 0.92107,-1.56162 2.09462,-3.22054 2.60789,-3.68648 1.28345,-1.16513 3.26222,-3.71993 4.28291,-5.52968 0.46762,-0.82913 1.22732,-1.82483 1.68824,-2.21266 l 0.83802,-0.70514 -0.93944,-0.83006 c -0.51669,-0.45653 -1.79194,-1.40193 -2.83389,-2.1009 l -1.89446,-1.27085 0.002,-1.63957 c 0.005,-3.67656 0.9878,-9.33861 1.75424,-10.10505 0.19814,-0.19814 0.36026,-0.54735 0.36026,-0.77603 0,-0.48503 0.41373,-0.55201 0.68623,-0.11111 0.13158,0.2129 0.28981,0.16583 0.52535,-0.15628 0.23781,-0.32523 0.51807,-0.40685 0.9518,-0.2772 1.27538,0.38125 2.79404,1.45506 3.50138,2.47575 0.40305,0.58161 1.06759,1.17417 1.47674,1.31681 1.98614,0.69237 4.37418,3.85436 6.86253,9.08668 1.57535,3.31252 2.09963,3.98036 4.78138,6.09056 2.06954,1.62846 2.74395,1.86859 4.32571,1.54022 1.711,-0.3552 3.9904,-0.0616 7.84513,1.01037 1.52797,0.42493 4.08781,0.9728 5.68854,1.21748 3.48029,0.53199 4.84043,1.11024 8.77864,3.73216 1.6268,1.08306 3.07839,1.9692 3.22575,1.9692 0.14737,0 0.94544,-0.59287 1.77351,-1.31749 1.71878,-1.50407 2.8155,-1.82898 4.58035,-1.35695 2.57787,0.68947 4.65896,2.91256 5.99184,6.40066 0.56983,1.49123 0.89794,1.95954 1.79503,2.56203 1.07139,0.71955 1.11177,0.80183 1.6818,3.42646 0.74454,3.42817 1.73962,5.49881 3.03574,6.31701 1.851,1.16849 3.06027,3.28824 4.05086,7.10082 1.10884,4.26767 1.35367,6.64932 0.98755,9.60673 -0.17584,1.42043 -0.31857,2.97637 -0.31717,3.45763 0.003,1.15901 0.53378,3.22602 0.82777,3.22602 0.12824,0 0.23317,-1.19063 0.23317,-2.64584 0,-1.4552 0.0654,-2.64583 0.14543,-2.64583 0.69842,0 1.83722,1.01349 2.32516,2.06931 0.49926,1.08032 0.57078,1.69288 0.56157,4.80986 -0.017,5.76858 -0.67157,7.74094 -3.66791,11.05279 -1.98261,2.19138 -2.28482,2.72583 -3.93972,6.96735 -1.81663,4.65607 -2.7137,6.26045 -5.59163,10.00054 -1.24986,1.62429 -1.56344,1.84641 -1.88109,1.33244 -0.0953,-0.15411 -0.43566,-0.24581 -0.75647,-0.20377 -0.32081,0.0421 -0.92081,-0.18905 -1.33333,-0.51354 -0.41252,-0.32449 -0.9721,-0.58998 -1.24352,-0.58998 -0.53089,0 -0.6637,-0.39274 -0.22459,-0.66412 0.3912,-0.24177 0.0478,-0.6588 -0.54255,-0.6588 -0.43491,0 -0.47031,-0.0965 -0.24896,-0.67868 0.39693,-1.04402 0.3092,-1.30172 -0.26596,-0.78121 -0.2882,0.26082 -0.59512,0.90435 -0.68205,1.43007 -0.0869,0.52573 -0.32739,1.48309 -0.53434,2.12748 -0.20696,0.64439 -0.37629,1.62665 -0.37629,2.18281 0,1.11846 -0.15647,1.23971 -0.70743,0.54818 -0.92925,-1.16636 -1.24803,-1.76799 -1.41398,-2.66861 -0.14998,-0.81396 -0.21399,-0.88707 -0.39918,-0.45595 -0.26881,0.62578 0.68509,3.55539 1.5989,4.9105 0.62291,0.92374 0.62461,0.94863 0.68574,10.0317 0.0611,9.08674 0.0601,9.10609 -0.50442,9.31492 -0.78205,0.2893 -0.87052,0.0161 -0.57635,-1.78021 0.14043,-0.85752 0.25601,-1.58889 0.25686,-1.62527 7.9e-4,-0.0364 -0.10428,-0.0661 -0.23361,-0.0661 -0.12932,0 -0.31622,0.43222 -0.41533,0.9605 -0.27181,1.44892 -0.62359,0.77053 -0.90507,-1.74539 -0.16873,-1.50812 -0.3857,-2.33012 -0.66992,-2.53794 -0.23121,-0.16906 -0.42037,-0.50262 -0.42037,-0.74124 0,-0.55758 -0.42324,-0.56235 -0.63628,-0.007 -0.1275,0.33224 -0.24546,0.35885 -0.53298,0.12023 -0.29959,-0.24863 -0.43059,-0.11699 -0.69445,0.69781 -0.60406,1.86538 -1.60234,3.55818 -2.81126,4.7671 -0.90834,0.90835 -1.25686,1.11587 -1.42287,0.84727 -0.17664,-0.28581 -0.33484,-0.25379 -0.80478,0.1629 l -0.58492,0.51865 0.1668,-1.25659 c 0.0917,-0.69112 0.23615,-1.58409 0.3209,-1.98438 0.14893,-0.70343 0.12262,-0.69319 -0.78629,0.30574 -0.51721,0.56844 -1.4177,1.24723 -2.00109,1.50842 -1.29353,0.57914 -1.32674,0.44252 -0.52141,-2.14507 0.90768,-2.91648 2.10769,-8.01431 2.08487,-8.8569 -0.0201,-0.74366 -0.066,-0.70339 -0.64733,0.5682 -0.34411,0.75273 -1.29432,3.5507 -2.11157,6.21771 -0.81725,2.66702 -1.58608,5.09753 -1.70852,5.40115 -0.21714,0.53845 -0.43321,0.55635 -8.78083,0.72716 -4.70701,0.0963 -11.56453,0.17533 -15.23893,0.17557 -6.2692,5.3e-4 -6.68073,-0.029 -6.68073,-0.47815 z m 60.09206,-16.8154 c 0.26783,-0.58783 0.2426,-0.77762 -0.16296,-1.22576 -0.26393,-0.29164 -0.75907,-0.53025 -1.10032,-0.53025 -0.34124,0 -0.62045,-0.0704 -0.62045,-0.15647 0,-0.0861 0.66317,-1.06833 1.47371,-2.18281 2.43527,-3.34846 4.17394,-7.22842 5.41348,-12.08051 1.23359,-4.82876 2.51569,-8.92689 3.12259,-9.9811 0.38764,-0.67335 0.44617,-0.69238 0.8911,-0.28972 0.26191,0.23703 0.47621,0.63675 0.47621,0.88826 0,0.25152 0.25527,0.52406 0.56727,0.60565 0.55605,0.14541 0.56365,0.21803 0.3838,3.66888 -0.41971,8.05289 -1.80478,13.57669 -4.43545,17.6891 -1.04264,1.6299 -3.94824,3.82393 -5.45565,4.11958 -0.86005,0.16868 -0.86652,0.16254 -0.55333,-0.52485 z m -111.68581,-3.29078 c 0,-0.11653 0.53578,-0.47217 1.19063,-0.79031 1.44847,-0.70373 1.53017,-0.57055 0.20316,0.33117 -1.02721,0.69801 -1.39379,0.81877 -1.39379,0.45914 z m 27.84299,-16.24816 c -0.458,-0.458 -0.6546,-0.51545 -0.90547,-0.26459 -0.62697,0.62698 -1.69493,0.34919 -2.96897,-0.77226 l -1.24137,-1.09269 0.80724,-0.49092 c 0.93508,-0.56865 0.99922,-1.0791 0.39237,-3.1226 -0.22818,-0.76837 -0.34879,-1.46312 -0.26802,-1.54388 0.21948,-0.21948 2.00582,1.76144 2.00582,2.22431 0,0.22004 0.14882,0.34551 0.33072,0.27881 0.18191,-0.0667 0.30367,-0.2471 0.2706,-0.40089 -0.0331,-0.1538 -0.13999,-0.79376 -0.23758,-1.42214 -0.17105,-1.10129 -0.15934,-1.12725 0.32471,-0.7197 0.27619,0.23254 0.73044,0.50433 1.00943,0.60398 0.38663,0.1381 0.43382,0.25463 0.19844,0.49001 -0.54338,0.54338 -0.34798,1.19413 0.41613,1.38592 0.39872,0.10007 0.80637,0.31368 0.90588,0.47468 0.12818,0.20742 0.30575,0.18915 0.60917,-0.0627 0.85003,-0.70546 1.03983,0.0592 0.53513,2.15578 -0.73671,3.06039 -1.06264,3.40045 -2.18423,2.27886 z m 1.10959,-5.70289 c -0.36721,-0.25144 -0.68938,-1.12042 -0.4154,-1.12042 0.11559,0 0.4898,0.29765 0.83157,0.66145 0.42789,0.45547 0.50405,0.6602 0.24456,0.65741 -0.20727,-0.002 -0.5046,-0.0915 -0.66073,-0.19844 z m -2.09737,-2.70793 c -0.0899,-0.14552 -0.0445,-0.26458 0.10106,-0.26458 0.14552,0 0.33817,0.11906 0.42811,0.26458 0.0899,0.14553 0.0444,0.26459 -0.10107,0.26459 -0.14552,0 -0.33816,-0.11906 -0.4281,-0.26459 z m -1.11104,-1.91183 c -0.49342,-0.63878 -1.11455,-2.54096 -1.41952,-4.34723 -0.25294,-1.49807 -0.47203,-1.98764 -1.26884,-2.8353 -0.97555,-1.03781 -0.48333,-0.93729 0.78888,0.16111 0.95973,0.82862 1.14236,1.27013 1.8144,4.38633 0.57933,2.68625 0.59916,3.30062 0.0851,2.63509 z m 4.16306,-4.94994 c -0.50252,-0.93896 -0.28391,-1.05032 0.98288,-0.50067 1.82226,0.79066 1.93732,1.01245 0.52524,1.01245 -0.94946,0 -1.29743,-0.11809 -1.50812,-0.51178 z m -3.5485,-6.24533 c -0.0907,-0.23646 -0.15008,-0.80714 -0.13186,-1.26818 0.0275,-0.69746 0.0663,-0.63828 0.23092,0.35237 0.21028,1.26573 0.17179,1.62163 -0.0991,0.91581 z m -0.95873,-6.35291 c 0,-0.08 0.20237,-0.52647 0.44971,-0.99219 0.33556,-0.63182 0.47413,-0.73274 0.5459,-0.3976 0.11304,0.52787 -0.37274,1.53522 -0.74033,1.53522 -0.1404,0 -0.25528,-0.0654 -0.25528,-0.14543 z m -15.14525,-8.542 c 0.0837,-0.87114 -0.0149,-1.54567 -0.30929,-2.11487 -0.2377,-0.45968 -0.55482,-1.1583 -0.70469,-1.55251 -0.26906,-0.70766 -0.26571,-0.71059 0.26456,-0.2307 0.83891,0.75921 1.87176,3.06067 1.87176,4.17079 0,0.88035 -0.078,1.00639 -0.62262,1.00639 -0.58486,0 -0.61517,-0.0776 -0.49972,-1.2791 z m 17.18258,0.44216 c -0.21242,-0.34005 -0.82408,-1.31588 -1.35926,-2.16852 -0.53518,-0.85264 -0.92142,-1.60188 -0.85831,-1.66499 0.0631,-0.0631 0.73512,0.85238 1.49336,2.03442 0.75824,1.18203 1.31828,2.2095 1.24452,2.28325 -0.0738,0.0738 -0.3079,-0.14411 -0.52031,-0.48416 z m -21.06812,-0.65395 c -0.65341,-0.83067 -0.67661,-1.1187 -0.15063,-1.86965 0.34856,-0.49763 0.35198,-0.77487 0.0277,-2.24168 -0.20352,-0.9206 -0.43638,-2.15007 -0.51745,-2.73216 -0.1473,-1.05767 -0.14709,-1.05796 0.33862,-0.47146 0.2673,0.32278 0.69329,1.43273 0.94665,2.46655 0.26305,1.07341 0.74191,2.21395 1.11639,2.659 0.50231,0.59696 0.6134,0.94814 0.47471,1.50072 -0.38676,1.54097 -1.33568,1.83323 -2.23598,0.68868 z m 7.78938,-13.05573 c -0.19022,-0.30778 0.20011,-1.10309 0.77592,-1.58098 0.22623,-0.18775 0.41133,-0.44585 0.41133,-0.57355 0,-0.54712 -1.34355,-0.14915 -3.23564,0.95844 -1.96396,1.14966 -2.5852,1.39218 -2.5852,1.00924 0,-0.0998 0.23279,-0.42917 0.5173,-0.73203 0.6203,-0.66027 1.86395,-2.94503 1.86395,-3.42433 0,-0.18755 -0.44648,-0.47833 -0.99219,-0.64618 -0.5457,-0.16786 -1.5875,-0.59403 -2.3151,-0.94706 l -1.32292,-0.64186 2.38125,-0.0394 2.38125,-0.0394 -1.4552,-0.50316 c -0.80037,-0.27674 -1.4579,-0.50652 -1.46119,-0.51061 -0.003,-0.004 -0.22518,-0.41449 -0.4931,-0.91198 -0.45393,-0.8429 -0.55266,-0.89247 -1.44923,-0.7276 -0.52916,0.0973 -1.67427,0.17692 -2.54469,0.17692 -1.2516,0 -1.60021,-0.0902 -1.66689,-0.43105 -0.10968,-0.56076 0.16362,-0.61828 7.21822,-1.5191 1.16417,-0.14865 3.18902,-0.2767 4.49966,-0.28454 1.31065,-0.008 2.79105,-0.13129 3.28977,-0.27433 0.49873,-0.14303 0.96185,-0.20498 1.02916,-0.13767 0.25853,0.25853 -1.30868,2.24684 -1.87378,2.37724 -0.32714,0.0755 -1.66637,0.1731 -2.97606,0.21691 -1.60964,0.0538 -2.18931,0.1493 -1.78891,0.29461 0.83663,0.30362 0.48024,0.67917 -0.6741,0.71035 -0.87719,0.0237 -0.90926,0.0479 -0.31511,0.23821 0.3638,0.1165 1.95888,0.2237 3.54462,0.2382 l 2.88317,0.0264 1.19761,-0.99218 c 1.85751,-1.53889 2.50222,-1.91461 3.28866,-1.91649 0.60215,-0.001 0.7276,0.11347 0.7276,0.66651 0,0.65733 0.013,0.66154 0.79375,0.25779 1.16092,-0.60034 0.97381,-0.15478 -0.55974,1.33286 -1.19489,1.15912 -2.78294,3.74702 -2.48325,4.04672 0.0606,0.0606 0.48955,-0.20896 0.95316,-0.59906 0.57976,-0.48783 0.92825,-0.62398 1.11618,-0.43605 0.44249,0.44249 -0.53102,1.28435 -2.68104,2.31846 -1.07461,0.51687 -2.32903,1.26169 -2.78759,1.65516 -1.79353,1.53892 -2.82474,1.97067 -3.21163,1.34467 z m 13.03367,-2.08659 c -0.14333,-1.50757 -0.51848,-2.45585 -0.84312,-2.13121 -0.0649,0.0649 0.005,0.69373 0.15484,1.39738 0.17542,0.82247 0.18163,1.3706 0.0174,1.53483 -0.16424,0.16423 -0.32141,-0.32742 -0.44012,-1.37668 -0.10157,-0.89769 -0.12162,-1.69519 -0.0446,-1.77225 0.077,-0.077 0.50513,0.0111 0.9513,0.19592 0.89536,0.37087 1.85159,1.43518 1.85159,2.06087 0,0.3396 -0.0792,0.3305 -0.50908,-0.0585 -0.49322,-0.44635 -0.51639,-0.42496 -0.7436,0.6866 l -0.23452,1.14731 -0.16012,-1.68425 z m -2.42673,-9.2323 c -1.88061,-0.60741 -2.041,-0.71054 -1.60308,-1.03076 0.29216,-0.21363 1.19012,-0.35582 2.24711,-0.35582 1.97956,0 2.83764,0.53623 2.51,1.56854 -0.21591,0.68029 -0.54279,0.66144 -3.15403,-0.18196 z m -5.03694,-0.30052 c -0.16296,-0.26368 0.44991,-0.56142 1.12899,-0.54847 0.38075,0.007 0.37083,0.0618 -0.0722,0.39687 -0.59186,0.44766 -0.85084,0.48481 -1.05678,0.1516 z m -22.96498,-2.61516 c -0.0668,-0.25564 0.009,-1.4747 0.16836,-2.709 0.25464,-1.97116 0.35429,-2.24419 0.81907,-2.24419 0.767,0 0.79725,0.87729 0.11009,3.19203 -0.62001,2.08849 -0.89608,2.53149 -1.09752,1.76116 z m 15.21881,-1.72536 c -0.79212,-0.44025 -5.57224,-4.86997 -5.88419,-5.45285 -0.20318,-0.37963 -0.006,-0.65116 1.06469,-1.46786 l 1.31399,-1.00205 1.61841,0.70188 c 1.66793,0.72336 2.13417,0.73258 1.55166,0.0307 -0.50964,-0.61408 -0.016,-0.48266 1.10495,0.29417 0.55352,0.38359 1.00641,0.869 1.00641,1.07869 0,0.20968 0.36206,0.74331 0.80459,1.18583 0.79119,0.79119 0.81369,0.79636 1.35107,0.31038 0.30056,-0.27182 0.76055,-0.91094 1.0222,-1.42026 0.26165,-0.50932 0.93359,-1.33674 1.4932,-1.8387 0.86131,-0.77259 0.94157,-0.92878 0.52292,-1.01766 -0.4189,-0.0889 -0.47425,-0.28525 -0.36176,-1.28322 0.16315,-1.44744 0.32024,-1.62466 0.94167,-1.06227 0.26702,0.24164 0.67644,0.43935 0.90984,0.43935 0.23339,0 0.50529,0.26789 0.6042,0.59531 0.0989,0.32743 0.47694,0.91286 0.84005,1.30096 l 0.66019,0.70565 -0.7288,1.33906 c -1.27181,2.33672 -2.34705,2.84413 -1.18021,0.55694 0.65238,-1.27877 0.69828,-1.79265 0.11704,-1.31026 -0.80949,0.67182 -1.6516,2.52574 -1.82828,4.02497 -0.30922,2.624 -1.68629,3.6419 -4.90334,3.62444 -0.80037,-0.004 -1.71859,-0.15429 -2.0405,-0.3332 z m -2.44862,-12.95126 c -0.007,-1.35436 0.0803,-1.78594 0.35977,-1.78594 0.82495,0 0.94111,2.02093 0.1694,2.94725 l -0.52036,0.62462 -0.009,-1.78593 z m 8.79904,-1.71355 c -0.32168,-0.62189 -0.47325,-1.13072 -0.33683,-1.13072 0.39605,0 1.10307,1.24602 1.00825,1.77689 -0.0626,0.35071 -0.2481,0.17223 -0.67142,-0.64617 z m 31.67341,-3.93457 c 0,-0.0869 0.59561,-0.69353 1.32358,-1.34803 0.80149,-0.72062 2.17047,-2.53422 3.47062,-4.59785 2.29265,-3.638931 2.88277,-4.361901 2.87293,-3.519651 -0.003,0.27248 -0.35083,1.848161 -0.77253,3.501501 -0.88955,3.4876 -1.38789,4.18122 -3.85189,5.36132 -1.43607,0.68778 -3.04271,1.00603 -3.04271,0.60271 z M 150.00614,83.410036 c -1.63797,-0.117994 -3.16192,-0.317381 -3.38654,-0.443088 -0.22462,-0.125703 -0.94123,-0.875366 -1.59246,-1.665911 -1.18286,-1.435915 -2.22932,-4.012145 -2.22932,-5.488266 0,-0.425995 0.81612,-1.882463 2.14369,-3.825658 1.17903,-1.725779 2.0848,-3.196677 2.01282,-3.268662 -0.072,-0.07198 -0.80856,0.06613 -1.63684,0.306914 -2.13279,0.620019 -3.06795,0.379023 -4.28296,-1.103736 -0.84375,-1.029687 -1.02987,-1.501913 -1.27346,-3.230906 l -0.28527,-2.02496 -0.98482,0.03018 c -1.14743,0.03516 -1.17661,-0.07571 -0.41118,-1.562074 0.82792,-1.607697 0.73857,-3.708749 -0.33327,-7.837345 l -0.8842,-3.405843 0.78941,-1.285375 c 0.43418,-0.706956 1.01537,-1.794777 1.29153,-2.417378 0.27617,-0.622601 0.61767,-1.093486 0.75889,-1.046411 0.40346,0.134484 1.20631,2.405585 1.49975,4.24247 0.25426,1.591567 0.64981,2.898934 1.77707,5.873444 0.47658,1.257556 0.56292,1.334911 1.7476,1.565698 0.68543,0.13353 1.24624,0.317476 1.24624,0.408769 0,0.09129 -1.15184,0.639587 -2.55964,1.218432 -1.4078,0.578845 -2.60411,1.185856 -2.65847,1.348914 -0.1218,0.365414 2.42878,-0.550982 5.55866,-1.997163 3.11486,-1.439243 4.74493,-1.916233 10.49811,-3.071957 5.37222,-1.079195 6.45501,-1.041582 7.30372,0.253709 0.37578,0.573514 0.37265,0.793941 -0.0346,2.436454 -0.24627,0.993242 -0.60106,2.107664 -0.78843,2.476495 -0.18736,0.36883 -0.42591,1.142736 -0.53013,1.719791 -0.10421,0.577055 -0.30187,1.191127 -0.43924,1.364604 -0.2443,0.308505 -3.99352,1.6144 -7.81717,2.722809 -1.05502,0.305834 -1.91823,0.67008 -1.91823,0.809441 0,0.139359 0.15513,0.253379 0.34473,0.253379 0.71543,0 4.62397,2.096799 6.46502,3.468266 1.81943,1.355358 1.915,1.479323 1.91577,2.484859 7.9e-4,1.126977 -1.5958,7.60867 -2.167,8.796993 -0.22228,0.462436 -0.66288,0.793054 -1.26685,0.950622 -0.50932,0.132874 -1.68272,0.464566 -2.60756,0.737092 -0.92483,0.272526 -1.8178,0.478499 -1.98437,0.457716 -0.16658,-0.02077 -1.64302,-0.134324 -3.281,-0.252318 z m 11.24637,-0.390192 c -0.10914,-0.110908 -0.19844,-0.556255 -0.19844,-0.989661 0,-0.642895 0.49085,-1.286817 2.6655,-3.496704 3.39113,-3.446084 3.97548,-3.779287 5.91462,-3.372548 1.83843,0.385616 5.14342,1.812189 7.10415,3.066449 2.4946,1.595779 1.93492,2.527723 -1.95806,3.260423 -1.21926,0.229479 -2.57402,0.612773 -3.01059,0.851763 -0.62532,0.342328 -1.55165,0.43453 -4.36562,0.43453 -1.96453,0 -4.10766,0.100664 -4.7625,0.223698 -0.65484,0.123033 -1.27992,0.132955 -1.38906,0.02204 z m 19.04958,-3.200284 c -0.0688,-0.121256 -0.34286,-0.925803 -0.60911,-1.787884 -0.28602,-0.926132 -1.28256,-2.762528 -2.4357,-4.488477 -1.07339,-1.606582 -2.0152,-3.238944 -2.09291,-3.627472 -0.22134,-1.106731 0.60778,-2.488922 3.00256,-5.00543 1.21095,-1.272496 2.20172,-2.387379 2.20172,-2.477519 0,-0.09014 -1.95219,-0.16389 -4.33821,-0.16389 h -4.33822 l -0.86447,-0.984574 c -1.2022,-1.369232 -3.92596,-5.56303 -4.12305,-6.348306 -0.23532,-0.937612 0.27994,-1.310439 2.68825,-1.945145 1.56698,-0.412972 3.58443,-0.629266 7.81605,-0.837972 6.90439,-0.340529 9.71208,-0.0086 12.86677,1.520927 1.04606,0.507184 2.12961,0.922153 2.40792,0.922153 0.2783,0 0.88095,0.13071 1.33923,0.290467 0.9769,0.34055 1.04878,0.834734 0.39886,2.742154 -0.34568,1.014511 -0.40391,1.893303 -0.28518,4.303963 0.0821,1.666039 0.0692,2.951677 -0.0286,2.856974 -0.0978,-0.0947 -0.5434,-0.789887 -0.99018,-1.544852 -1.03453,-1.748092 -1.9355,-2.138793 -2.88189,-1.249707 -0.39719,0.373136 -1.05599,0.649605 -1.65748,0.695568 -0.54906,0.04196 -1.08759,0.08331 -1.19673,0.0919 -0.3983,0.03135 -0.1859,0.809367 0.22096,0.809367 0.56774,0 4.425,3.975409 4.96844,5.120626 0.23948,0.504661 0.51035,1.973239 0.60194,3.263506 0.14509,2.044113 0.0972,2.481175 -0.37234,3.397049 -0.82674,1.612659 -1.56827,2.109756 -4.29452,2.878878 -1.38245,0.390012 -3.04932,0.899404 -3.70416,1.131983 -1.36505,0.484817 -4.11409,0.763381 -4.2999,0.435713 z m 13.29573,-3.482395 c 0,-0.435864 1.66979,-2.727561 2.30764,-3.167116 0.35925,-0.247565 0.88989,-0.668401 1.1792,-0.935188 0.2893,-0.26679 0.55067,-0.445384 0.5808,-0.396875 0.0301,0.04851 0.37741,0.526735 0.77171,1.062728 0.39429,0.535993 0.7169,1.142619 0.7169,1.348055 0,0.631068 -0.84535,1.17162 -2.73985,1.751978 -1.92274,0.589013 -2.8164,0.695759 -2.8164,0.336418 z m 7.27604,-2.587017 c 0.71304,-0.549981 3.64919,-2.259435 5.34902,-3.114238 1.83656,-0.923565 2.41529,-0.882703 0.7364,0.05199 -0.72761,0.405083 -1.80084,1.041525 -2.38496,1.414317 -1.27851,0.815959 -3.73394,2.076215 -4.02239,2.064504 -0.11398,-0.0046 0.0309,-0.192087 0.32193,-0.416576 z M 135.96849,47.78295 c -0.15342,-0.400182 -0.35268,-1.02526 -0.4428,-1.389062 -0.44716,-1.805155 -1.88712,-5.239991 -2.45892,-5.865479 -0.37605,-0.411348 -0.56293,-0.83971 -0.4477,-1.026164 0.14662,-0.237238 0.25795,-0.212591 0.43023,0.09525 0.12845,0.229542 0.77519,0.496702 1.44587,0.597276 0.91578,0.137331 1.60084,0.504355 2.79264,1.496178 1.56925,1.30595 1.57802,1.321117 1.39486,2.413264 -0.17697,1.055205 -1.89508,4.406346 -2.25911,4.406346 -0.0969,0 -0.30165,-0.327422 -0.45507,-0.727605 z"
       id="path1078"
       inkscape:connector-curvature="0" />
    <g
       transform="matrix(0.21126757,-0.04204897,0.04204897,0.21126757,214.03953,159.47736)"
       inkscape:label="logo"
       id="g1088"
       style="fill:#ffffff">
      <g
         id="g1090"
         style="fill:#ffffff">
        <path
           inkscape:connector-curvature="0"
           id="path1092"
           style="fill:#ffffff;fill-opacity:1;fill-rule:nonzero;stroke:none"
           d="M 12.473,1.34 H 1.801 v 49.84 c 0.051,19.574 13.387,31.332 26.683,31.332 13.297,0 29.489,-9.692 29.489,-29.489 0,-21.773 -17.27,-28.089 -26.262,-28.089 -7.441,0 -16.149,3.652 -16.149,3.652 v 11.797 c 0,0 4.215,-5.059 14.606,-5.059 10.394,0 17.133,8.285 17.133,18.117 0,9.832 -5.055,18.399 -17.41,18.399 -12.36,0 -17.7,-13.199 -17.7,-19.66 0,-6.461 0.282,-50.84 0.282,-50.84 z" />
        <path
           inkscape:connector-curvature="0"
           id="path1094"
           style="fill:#ffffff;fill-opacity:1;fill-rule:nonzero;stroke:none"
           d="M 91.961,25.215 V 35.746 C 87.043,33.922 74.547,37.574 74.547,53.164 V 80.547 H 64.578 V 26.34 h 10.25 v 5.055 c 0,0 6.039,-7.868 17.133,-6.18 z" />
        <path
           inkscape:connector-curvature="0"
           id="path1096"
           style="fill:#ffffff;fill-opacity:1;fill-rule:nonzero;stroke:none"
           d="m 123.012,80.773 c -9.746,0.364 -15.821,-4.007 -19.41,-8.886 -1.793,-2.438 -2.973,-5.004 -3.711,-7.176 -0.735,-2.172 -1.032,-3.934 -1.043,-4.856 V 59.852 L 98.902,1.676 h 10.836 l 0.004,0.359 0.488,52.809 c 0.067,7.023 2.649,10.758 5.524,12.801 2.875,2.046 6.09,2.386 7.391,2.433 l 0.355,0.012 -0.141,10.668 z m -0.375,-0.761 0.125,-9.258 c -1.504,-0.082 -4.543,-0.461 -7.43,-2.512 -3.055,-2.172 -5.766,-6.187 -5.832,-13.394 L 109.012,2.406 h -9.379 l -0.055,57.446 c 0.012,0.769 0.289,2.515 1.008,4.625 0.715,2.113 1.867,4.609 3.605,6.976 3.43,4.668 9.153,8.793 18.446,8.559 z" />
      </g>
    </g>
  </g>
</svg>
